<svg width="45" height="50" viewBox="0 0 45 50" fill="none" xmlns="http://www.w3.org/2000/svg">
<path d="M13.875 45H31.125L33.625 35H11.375L13.875 45ZM13.875 50C12.7083 50 11.6875 49.6458 10.8125 48.9375C9.9375 48.2292 9.35417 47.3125 9.0625 46.1875L6.25 35H38.75L35.9375 46.1875C35.6458 47.3125 35.0625 48.2292 34.1875 48.9375C33.3125 49.6458 32.2917 50 31.125 50H13.875ZM5 30H40V25H5V30ZM22.5 15C22.5 10.8333 23.9583 7.29167 26.875 4.375C29.7917 1.45833 33.3333 0 37.5 0C37.5 3.75 36.3125 7 33.9375 9.75C31.5625 12.5 28.5833 14.1667 25 14.75V20H45V30C45 31.375 44.5104 32.5521 43.5312 33.5312C42.5521 34.5104 41.375 35 40 35H5C3.625 35 2.44792 34.5104 1.46875 33.5312C0.489583 32.5521 0 31.375 0 30V20H20V14.75C16.4167 14.1667 13.4375 12.5 11.0625 9.75C8.6875 7 7.5 3.75 7.5 0C11.6667 0 15.2083 1.45833 18.125 4.375C21.0417 7.29167 22.5 10.8333 22.5 15Z" fill="#D62828"/>
</svg>
