<svg width="41" height="40" viewBox="0 0 41 40" fill="none" xmlns="http://www.w3.org/2000/svg">
<path d="M20 40C17.2333 40 14.6333 39.475 12.2 38.425C9.76667 37.375 7.65 35.95 5.85 34.15C4.05 32.35 2.625 30.2333 1.575 27.8C0.525 25.3667 0 22.7667 0 20C0 17.2333 0.525 14.6333 1.575 12.2C2.625 9.76667 4.05 7.65 5.85 5.85C7.65 4.05 9.76667 2.625 12.2 1.575C14.6333 0.525 17.2333 0 20 0C24.8667 0 29.125 1.525 32.775 4.575C36.425 7.625 38.7 11.45 39.6 16.05H35.5C34.8667 13.6167 33.725 11.4417 32.075 9.525C30.425 7.60833 28.4 6.16667 26 5.2V6C26 7.1 25.6083 8.04167 24.825 8.825C24.0417 9.60833 23.1 10 22 10H18V14C18 14.5667 17.8083 15.0417 17.425 15.425C17.0417 15.8083 16.5667 16 16 16H12V20H16V26H14L4.4 16.4C4.3 17 4.20833 17.6 4.125 18.2C4.04167 18.8 4 19.4 4 20C4 24.3667 5.53333 28.1167 8.6 31.25C11.6667 34.3833 15.4667 35.9667 20 36V40ZM38.2 39L31.8 32.6C31.1 33 30.35 33.3333 29.55 33.6C28.75 33.8667 27.9 34 27 34C24.5 34 22.375 33.125 20.625 31.375C18.875 29.625 18 27.5 18 25C18 22.5 18.875 20.375 20.625 18.625C22.375 16.875 24.5 16 27 16C29.5 16 31.625 16.875 33.375 18.625C35.125 20.375 36 22.5 36 25C36 25.9 35.8667 26.75 35.6 27.55C35.3333 28.35 35 29.1 34.6 29.8L41 36.2L38.2 39ZM27 30C28.4 30 29.5833 29.5167 30.55 28.55C31.5167 27.5833 32 26.4 32 25C32 23.6 31.5167 22.4167 30.55 21.45C29.5833 20.4833 28.4 20 27 20C25.6 20 24.4167 20.4833 23.45 21.45C22.4833 22.4167 22 23.6 22 25C22 26.4 22.4833 27.5833 23.45 28.55C24.4167 29.5167 25.6 30 27 30Z" fill="#F4C542"/>
</svg>
